<?xml version="1.0" standalone="no"?><!DOCTYPE svg PUBLIC "-//W3C//DTD SVG 1.1//EN" "http://www.w3.org/Graphics/SVG/1.1/DTD/svg11.dtd"><svg t="1680295796703" class="icon" viewBox="0 0 1455 1024" version="1.1" xmlns="http://www.w3.org/2000/svg" p-id="15712" xmlns:xlink="http://www.w3.org/1999/xlink" width="90.9375" height="64"><path d="M1287.275789 310.595368C1238.986105 206.848 1115.890526 0 937.498947 0h-419.84c-178.391579 0-296.582737 200.057263-349.776842 310.595368C83.968 388.042105 0 464.518737 0 596.237474v256c0 12.395789 9.108211 23.552 21.665684 26.246737 52.116211 11.425684 217.573053 34.330947 705.913263 34.330947 488.286316 0 653.743158-22.905263 705.913264-34.330947a27.270737 27.270737 0 0 0 21.665684-26.300632v-256c0-131.341474-77.985684-212.506947-167.882106-285.642105zM496.693895 80.842105h461.770105c141.635368 0 216.872421 202.105263 216.872421 235.789474H279.821474c0-33.684211 94.477474-235.789474 216.872421-235.789474zM223.878737 766.976c-61.925053 0-111.939368-48.128-111.939369-107.789474 0-59.607579 50.014316-107.789474 111.939369-107.789473s111.939368 48.181895 111.939368 107.789473c0 59.284211-50.014316 107.789474-111.939368 107.789474z m755.60421-106.765474c0 29.642105-25.222737 53.894737-56.050526 53.894737H531.725474c-30.72 0-55.942737-24.252632-55.942737-53.894737s25.168842-53.894737 55.942737-53.894737h391.814737c30.72 0 55.942737 24.252632 55.942736 53.894737z m251.796211 107.789474c-61.925053 0-111.939368-48.181895-111.939369-107.789474 0-59.607579 50.014316-107.789474 111.939369-107.789473s111.939368 48.181895 111.939368 107.789473c0 59.607579-50.014316 107.789474-111.939368 107.789474zM391.814737 943.157895c-167.558737 0-335.764211-16.869053-335.764211-16.869053 0 57.290105-1.077895 97.711158 20.965053 97.711158h297.337263c22.042947 0 17.461895-44.463158 17.461895-80.842105z m671.63621 0c167.882105 0 335.764211-16.869053 335.764211-16.869053 0 53.894737 7.006316 97.711158-17.461895 97.711158h-300.840421c-23.444211 0-17.461895-45.487158-17.461895-80.842105z" p-id="15713"></path></svg>